Coordinates
version=1
nRows=12
nColumns=24
inDegrees=yes

Units are S.I. units (second, meters, Newtons, ...)
Angles are in degrees.

endheader
time	pelvis_tilt	pelvis_list	pelvis_rotation	pelvis_tx	pelvis_ty	pelvis_tz	hip_flexion_r	hip_adduction_r	hip_rotation_r	knee_angle_r	ankle_angle_r	subtalar_angle_r	mtp_angle_r	hip_flexion_l	hip_adduction_l	hip_rotation_l	knee_angle_l	ankle_angle_l	subtalar_angle_l	mtp_angle_l	lumbar_extension	lumbar_bending	lumbar_rotation
      1.16350000	     -1.41696225	     -8.61178603	     -6.60952601	     -0.08015008	      0.99559601	      0.29349883	    -14.86171818	      8.69049463	     -2.43701906	     -4.81372165	      4.38575498	     -2.99952411	      0.97706874	     24.37698183	    -11.44610325	    -11.94909304	      1.79916498	      5.46810049	     -5.01856145	    -11.77365730	    -10.76724691	      9.87559115	      9.62603782
      1.16766667	     -1.38820365	     -8.56407716	     -6.87182937	     -0.07436245	      0.99508429	      0.29368231	    -15.08310401	      8.48621323	     -2.25946378	     -5.14644250	      4.45449014	     -2.80997098	      1.10812303	     24.29493001	    -11.48229279	    -11.90979582	      1.45867071	      5.47999418	     -5.26295140	    -11.76945466	    -10.80767780	      9.71846946	      9.85047791
      1.17183333	     -1.28092193	     -8.46602477	     -7.16818596	     -0.06849108	      0.99478448	      0.29394803	    -15.38289303	      8.20756196	     -2.05778341	     -5.47665295	      4.49029472	     -2.64762791	      1.36752036	     24.09354439	    -11.47664741	    -11.98368320	      1.10352779	      5.34589017	     -5.54489511	    -11.75319527	    -10.92766904	      9.48291023	     10.25138248
      1.17600000	     -1.19239677	     -8.38682431	     -7.46765823	     -0.06263310	      0.99448193	      0.29424940	    -15.65301201	      7.95263385	     -1.82037388	     -5.82249381	      4.49821148	     -2.52643669	      1.62411744	     23.92489949	    -11.49818000	    -12.03518568	      0.66707062	      5.27248856	     -5.81850937	    -11.72613513	    -11.02437923	      9.26176661	     10.50229558
      1.18016667	     -1.08078967	     -8.28445520	     -7.76651471	     -0.05673220	      0.99426029	      0.29452484	    -15.92751484	      7.66369164	     -1.60815120	     -6.19463495	      4.45740335	     -2.41536349	      1.93352794	     23.71495129	    -11.48841658	    -12.08965628	      0.21815085	      5.13611535	     -6.12863825	    -11.68265466	    -11.14629365	      9.00823042	     10.82203255
      1.18433333	     -0.98343589	     -8.17979182	     -8.05178258	     -0.05079480	      0.99404662	      0.29478364	    -16.18169655	      7.37596803	     -1.39938293	     -6.56907213	      4.40114604	     -2.30468373	      2.24613932	     23.52864912	    -11.47159035	    -12.14638740	     -0.27443875	      4.95663088	     -6.46074496	    -11.62792167	    -11.23932818	      8.75775572	     11.08127825
      1.18850000	     -0.80626388	     -8.05638419	     -8.32706732	     -0.04479898	      0.99401066	      0.29502101	    -16.51596835	      7.05095486	     -1.22455858	     -6.93121676	      4.25207743	     -2.19065342	      2.89954822	     23.23383805	    -11.41922776	    -12.22322750	     -0.75775814	      4.76378861	     -6.82065566	    -11.48694385	    -11.40220760	      8.45388007	     11.48140868
      1.19266667	     -0.79288913	     -7.97476321	     -8.61850649	     -0.03889190	      0.99373810	      0.29524849	    -16.63099822	      6.79452202	     -1.00897444	     -7.39426710	      4.16950629	     -2.08299397	      3.05112476	     23.14732638	    -11.43257452	    -12.27449347	     -1.30757030	      4.48154058	     -7.17584260	    -11.45501323	    -11.40484711	      8.25659636	     11.50374566
      1.19683333	     -0.71631721	     -7.83443751	     -8.90102969	     -0.03287322	      0.99363252	      0.29543966	    -16.80471354	      6.45979272	     -0.84408068	     -7.84644088	      4.01996976	     -1.95215007	      3.26987306	     22.94861050	    -11.36251290	    -12.33136522	     -1.78221727	      4.06853060	     -7.67309725	    -11.40284014	    -11.45156306	      7.96448615	     11.78018965
      1.20100000	     -0.56856788	     -7.67810466	     -9.13593452	     -0.02679906	      0.99366539	      0.29554359	    -17.04720183	      6.10393780	     -0.74354776	     -8.29976791	      3.89664401	     -1.83465392	      3.62370018	     22.67550676	    -11.24525189	    -12.40821052	     -2.25110711	      3.60221271	     -8.18861202	    -11.30623727	    -11.54747480	      7.64123266	     12.11337370
      1.20516667	     -0.40950040	     -7.54465903	     -9.39333215	     -0.02076729	      0.99379005	      0.29567648	    -17.27709997	      5.75998436	     -0.62703706	     -8.76667093	      3.53552062	     -1.85282366	     11.66733204	     22.38185832	    -11.16426496	    -12.56041988	     -2.71653867	      3.10584360	     -8.55030502	     -8.72480900	    -11.69479535	      7.34318340	     12.37739103
      1.20933333	     -0.37319431	     -7.38457213	     -9.59647567	     -0.01468158	      0.99372139	      0.29563939	    -17.34158272	      5.41780954	     -0.59508701	     -9.31480873	      3.34081883	     -1.67705839	     11.69759492	     22.24222576	    -11.03355945	    -12.59663709	     -3.18927734	      2.55545116	     -9.08332232	     -8.70869366	    -11.66286557	      7.05552774	     12.49916161
